# xmcd
#
# Track frame offsets:
#	150
#	14536
#	31497
#	46446
#	62706
#	77011
#	97163
#	108042
#	122705
#	146625
#
# Disc length: 2165 seconds
#
# Revision: 1
# Processed by: cddbd v1.4PL0 Copyright (c) Steve Scherf et al.
# Submitted via: audiograbber 1.81.02
#
DISCID=8508730a
DTITLE=NightHawk - NightHawk
DYEAR=1999
DGENRE=Country
TTITLE0=Cowboy Love
TTITLE1=Coming Home
TTITLE2=Hard Luck Woman
TTITLE3=Fishin' In The Dark
TTITLE4=I LIke It, I Love It
TTITLE5=Mississippi Walz
TTITLE6=Sold (T.G.C.A.I.)
TTITLE7=Red Wine And A Good Cigar
TTITLE8=The Dance
TTITLE9=Boots In Line
EXTD=
EXTT0=
EXTT1=
EXTT2=
EXTT3=
EXTT4=
EXTT5=
EXTT6=
EXTT7=
EXTT8=
EXTT9=
PLAYORDER=
